<svg width="24" height="25" viewBox="0 0 24 25" fill="none" xmlns="http://www.w3.org/2000/svg">
<g clip-path="url(#clip0_366_168319)">
<path d="M17.7703 10.8088C18.3187 9.28066 19.8984 4.86035 19.8984 3.44473C19.8984 2.19785 19.1625 1.15254 17.85 1.15254C15.7593 1.15254 13.8843 7.32598 13.2984 8.79785C12.8437 7.46191 10.7156 0.711914 8.84058 0.711914C7.38277 0.711914 6.69839 1.78535 6.69839 3.13535C6.69839 4.79004 8.30152 9.0791 8.88277 10.7291C8.58746 10.6213 8.26871 10.5275 7.94527 10.5275C6.84839 10.5275 5.68121 11.8916 5.68121 12.9932C5.68121 13.4104 5.91089 13.9963 6.05621 14.3854C4.32652 14.8541 3.66089 16.0072 3.66089 17.7463C3.65621 21.1307 6.86246 24.7119 11.3718 24.7119C16.9031 24.7119 20.3437 20.5588 20.3437 15.201C20.3437 13.1807 20.0203 11.3572 17.7703 10.8088ZM16.1109 5.77441C16.2984 5.19785 17.1 2.76035 17.85 2.76035C18.2531 2.76035 18.3609 3.17754 18.3609 3.51035C18.3609 4.40566 16.5515 9.35098 16.1531 10.4479L14.5593 10.1666L16.1109 5.77441ZM8.17027 2.97598C8.17027 2.41816 8.84996 0.833789 10.3406 5.18379L11.9625 9.88535C11.2312 9.82441 10.664 9.74473 10.3031 9.95098C9.79214 8.60098 8.17027 4.34004 8.17027 2.97598ZM8.06246 12.1494C9.43589 12.1494 11.2078 16.5838 11.2078 17.1838C11.2078 17.4229 10.9781 17.7182 10.7109 17.7182C9.73121 17.7182 7.10621 14.1135 7.10621 13.1385C7.11089 12.7775 7.70152 12.1494 8.06246 12.1494ZM16.7015 20.8822C15.3375 22.3822 13.5937 23.1604 11.5593 23.1604C8.77496 23.1604 6.57652 21.6322 5.51714 19.0213C4.71558 16.9869 5.69527 15.8197 6.48277 15.8197C7.01714 15.8197 9.02808 18.6463 9.02808 19.2463C9.02808 19.476 8.66714 19.6354 8.47964 19.6354C7.72496 19.6354 7.42964 18.9088 6.08433 17.226C4.69214 18.6182 7.04527 21.2994 8.81714 21.2994C10.0406 21.2994 10.8375 20.165 10.5984 19.3307C10.7718 19.3307 10.9875 19.3447 11.1468 19.3025C11.1984 20.5729 11.5734 22.0869 13.1015 22.1947C13.1015 22.1525 13.1953 21.8619 13.1953 21.8479C13.1953 21.0322 12.6984 20.3197 12.6984 19.49C12.6984 18.1635 13.7156 16.8791 14.7468 16.1291C15.1218 15.8479 15.5765 15.6744 16.0171 15.515C16.4718 15.3416 16.9546 15.14 17.3015 14.7932C17.25 14.2682 17.0343 13.8041 16.5093 13.8041C15.2109 13.8041 10.8562 13.9916 10.8562 11.9432C10.8562 11.6291 10.8609 11.3291 11.6718 11.3291C13.1859 11.3291 17.0296 11.7041 18.1546 12.6932C19.0031 13.4479 19.2937 17.9994 16.7015 20.8822ZM12.0796 14.976C12.5343 15.1213 13.0031 15.1635 13.4718 15.2572C13.125 15.5104 12.8156 15.8197 12.5203 16.1525C12.389 15.7541 12.2296 15.365 12.0796 14.976Z" fill="#98A2B3"/>
</g>
<defs>
<clipPath id="clip0_366_168319">
<rect width="24" height="24" fill="white" transform="translate(0 0.711914)"/>
</clipPath>
</defs>
</svg>
