<svg width="41" height="41" viewBox="0 0 41 41" fill="none" xmlns="http://www.w3.org/2000/svg">
<path d="M18.8333 5.21183H13.5C10.6997 5.21183 9.29961 5.21183 8.23005 5.7568C7.28924 6.23617 6.52433 7.00107 6.04497 7.94188C5.5 9.01144 5.5 10.4116 5.5 13.2118V27.2118C5.5 30.0121 5.5 31.4122 6.04497 32.4818C6.52433 33.4226 7.28924 34.1875 8.23005 34.6669C9.29961 35.2118 10.6997 35.2118 13.5 35.2118H27.5C30.3003 35.2118 31.7004 35.2118 32.77 34.6669C33.7108 34.1875 34.4757 33.4226 34.955 32.4818C35.5 31.4122 35.5 30.0121 35.5 27.2118V21.8785M20.5 13.5452H27.1667V20.2118M26.3333 6.04517V3.54517M32.8989 7.81293L34.6667 6.04517M34.6838 14.3785H37.1838M5.5 22.457C6.58657 22.6248 7.69978 22.7118 8.83333 22.7118C16.1439 22.7118 22.6089 19.0912 26.5328 13.5452" stroke="#D42427" stroke-width="3" stroke-linecap="round" stroke-linejoin="round"/>
</svg>
