<svg width="135" height="41" viewBox="0 0 135 41" fill="none" xmlns="http://www.w3.org/2000/svg">
<rect x="0.5" y="1.21191" width="134" height="39" rx="4.5" fill="black"/>
<rect x="0.5" y="1.21191" width="134" height="39" rx="4.5" stroke="#A6A6A6"/>
<path d="M68.136 22.4628C65.784 22.4628 63.867 24.2518 63.867 26.7158C63.867 29.1648 65.784 30.9688 68.136 30.9688C70.489 30.9688 72.406 29.1648 72.406 26.7158C72.405 24.2518 70.488 22.4628 68.136 22.4628ZM68.136 29.2948C66.847 29.2948 65.736 28.2318 65.736 26.7168C65.736 25.1858 66.848 24.1388 68.136 24.1388C69.425 24.1388 70.536 25.1858 70.536 26.7168C70.536 28.2308 69.425 29.2948 68.136 29.2948ZM58.822 22.4628C56.47 22.4628 54.553 24.2518 54.553 26.7158C54.553 29.1648 56.47 30.9688 58.822 30.9688C61.175 30.9688 63.092 29.1648 63.092 26.7158C63.092 24.2518 61.175 22.4628 58.822 22.4628ZM58.822 29.2948C57.533 29.2948 56.422 28.2318 56.422 26.7168C56.422 25.1858 57.534 24.1388 58.822 24.1388C60.111 24.1388 61.222 25.1858 61.222 26.7168C61.223 28.2308 60.111 29.2948 58.822 29.2948ZM47.744 23.7688V25.5728H52.062C51.933 26.5878 51.595 27.3288 51.079 27.8438C50.451 28.4718 49.468 29.1648 47.744 29.1648C45.086 29.1648 43.008 27.0218 43.008 24.3638C43.008 21.7058 45.086 19.5628 47.744 19.5628C49.178 19.5628 50.225 20.1268 50.998 20.8518L52.271 19.5788C51.191 18.5478 49.758 17.7588 47.744 17.7588C44.103 17.7588 41.042 20.7228 41.042 24.3638C41.042 28.0048 44.103 30.9688 47.744 30.9688C49.709 30.9688 51.192 30.3238 52.351 29.1158C53.543 27.9238 53.914 26.2478 53.914 24.8948C53.914 24.4768 53.882 24.0898 53.817 23.7678H47.744V23.7688ZM93.052 25.1698C92.698 24.2198 91.618 22.4628 89.411 22.4628C87.22 22.4628 85.399 24.1868 85.399 26.7158C85.399 29.0998 87.204 30.9688 89.62 30.9688C91.569 30.9688 92.697 29.7768 93.165 29.0838L91.715 28.1168C91.232 28.8258 90.571 29.2928 89.62 29.2928C88.67 29.2928 87.993 28.8578 87.558 28.0038L93.245 25.6518L93.052 25.1698ZM87.252 26.5878C87.204 24.9438 88.525 24.1068 89.476 24.1068C90.217 24.1068 90.845 24.4778 91.055 25.0088L87.252 26.5878ZM82.629 30.7118H84.497V18.2108H82.629V30.7118ZM79.567 23.4138H79.503C79.084 22.9138 78.278 22.4628 77.264 22.4628C75.137 22.4628 73.188 24.3318 73.188 26.7328C73.188 29.1168 75.137 30.9698 77.264 30.9698C78.279 30.9698 79.084 30.5188 79.503 30.0038H79.567V30.6158C79.567 32.2428 78.697 33.1128 77.296 33.1128C76.152 33.1128 75.443 32.2918 75.153 31.5988L73.526 32.2758C73.993 33.4028 75.233 34.7888 77.296 34.7888C79.487 34.7888 81.34 33.4998 81.34 30.3578V22.7218H79.568V23.4138H79.567ZM77.425 29.2948C76.136 29.2948 75.057 28.2148 75.057 26.7328C75.057 25.2338 76.136 24.1388 77.425 24.1388C78.697 24.1388 79.696 25.2338 79.696 26.7328C79.696 28.2148 78.697 29.2948 77.425 29.2948ZM101.806 18.2108H97.335V30.7118H99.2V25.9758H101.805C103.873 25.9758 105.907 24.4788 105.907 22.0938C105.907 19.7088 103.874 18.2108 101.806 18.2108ZM101.854 24.2358H99.2V19.9508H101.854C103.249 19.9508 104.041 21.1058 104.041 22.0938C104.041 23.0618 103.249 24.2358 101.854 24.2358ZM113.386 22.4408C112.035 22.4408 110.636 23.0358 110.057 24.3548L111.713 25.0458C112.067 24.3548 112.727 24.1288 113.418 24.1288C114.383 24.1288 115.364 24.7078 115.38 25.7368V25.8658C115.042 25.6728 114.318 25.3838 113.434 25.3838C111.649 25.3838 109.831 26.3648 109.831 28.1978C109.831 29.8708 111.295 30.9478 112.935 30.9478C114.189 30.9478 114.881 30.3848 115.315 29.7248H115.379V30.6898H117.181V25.8968C117.182 23.6788 115.524 22.4408 113.386 22.4408ZM113.16 29.2918C112.55 29.2918 111.697 28.9858 111.697 28.2298C111.697 27.2648 112.759 26.8948 113.676 26.8948C114.495 26.8948 114.882 27.0718 115.38 27.3128C115.235 28.4718 114.238 29.2918 113.16 29.2918ZM123.743 22.7138L121.604 28.1338H121.54L119.32 22.7138H117.31L120.639 30.2888L118.741 34.5028H120.687L125.818 22.7138H123.743ZM106.937 30.7118H108.802V18.2108H106.937V30.7118Z" fill="white"/>
<path d="M47.418 10.9551C47.418 11.7931 47.1701 12.4601 46.673 12.9581C46.109 13.5501 45.3731 13.8461 44.4691 13.8461C43.6031 13.8461 42.8661 13.5461 42.2611 12.9461C41.6551 12.3451 41.3521 11.6011 41.3521 10.7131C41.3521 9.8241 41.6551 9.0801 42.2611 8.4801C42.8661 7.8791 43.6031 7.5791 44.4691 7.5791C44.8991 7.5791 45.3101 7.6631 45.7001 7.8301C46.0911 7.9981 46.404 8.2211 46.6381 8.5001L46.111 9.0281C45.714 8.5531 45.167 8.3161 44.468 8.3161C43.836 8.3161 43.29 8.5381 42.829 8.9821C42.368 9.4261 42.1381 10.0031 42.1381 10.7121C42.1381 11.4211 42.368 11.9981 42.829 12.4421C43.29 12.8861 43.836 13.1081 44.468 13.1081C45.138 13.1081 45.6971 12.8851 46.1441 12.4381C46.4341 12.1471 46.602 11.7421 46.647 11.2231H44.468V10.5021H47.375C47.405 10.6591 47.418 10.8101 47.418 10.9551Z" fill="white"/>
<path d="M52.0281 8.44916H49.2961V10.3512H51.7601V11.0722H49.2961V12.9742H52.0281V13.7122H48.5251V7.71216H52.0281V8.44916Z" fill="white"/>
<path d="M55.279 13.7122H54.508V8.44916H52.832V7.71216H56.955V8.44916H55.279V13.7122Z" fill="white"/>
<path d="M59.938 13.7122V7.71216H60.709V13.7122H59.938Z" fill="white"/>
<path d="M64.1281 13.7122H63.3572V8.44916H61.6812V7.71216H65.8042V8.44916H64.1281V13.7122Z" fill="white"/>
<path d="M73.6089 12.9371C73.0189 13.5431 72.2859 13.8461 71.4089 13.8461C70.5319 13.8461 69.7989 13.5431 69.2099 12.9371C68.6199 12.3311 68.3259 11.5891 68.3259 10.7121C68.3259 9.83515 68.6199 9.09315 69.2099 8.48715C69.7989 7.88115 70.5319 7.57715 71.4089 7.57715C72.2809 7.57715 73.0129 7.88215 73.6049 8.49115C74.1969 9.10015 74.4929 9.84015 74.4929 10.7121C74.4929 11.5891 74.1979 12.3311 73.6089 12.9371ZM69.7789 12.4341C70.2229 12.8841 70.7659 13.1081 71.4089 13.1081C72.0519 13.1081 72.5959 12.8831 73.0389 12.4341C73.4829 11.9841 73.7059 11.4101 73.7059 10.7121C73.7059 10.0141 73.4829 9.44015 73.0389 8.99015C72.5959 8.54015 72.0519 8.31615 71.4089 8.31615C70.7659 8.31615 70.2229 8.54115 69.7789 8.99015C69.3359 9.44015 69.1129 10.0141 69.1129 10.7121C69.1129 11.4101 69.3359 11.9841 69.7789 12.4341Z" fill="white"/>
<path d="M75.5749 13.7122V7.71216H76.513L79.429 12.3792H79.4619L79.429 11.2232V7.71216H80.1999V13.7122H79.3949L76.344 8.81816H76.3109L76.344 9.97416V13.7122H75.5749Z" fill="white"/>
<path d="M47.418 10.9551C47.418 11.7931 47.1701 12.4601 46.673 12.9581C46.109 13.5501 45.3731 13.8461 44.4691 13.8461C43.6031 13.8461 42.8661 13.5461 42.2611 12.9461C41.6551 12.3451 41.3521 11.6011 41.3521 10.7131C41.3521 9.8241 41.6551 9.0801 42.2611 8.4801C42.8661 7.8791 43.6031 7.5791 44.4691 7.5791C44.8991 7.5791 45.3101 7.6631 45.7001 7.8301C46.0911 7.9981 46.404 8.2211 46.6381 8.5001L46.111 9.0281C45.714 8.5531 45.167 8.3161 44.468 8.3161C43.836 8.3161 43.29 8.5381 42.829 8.9821C42.368 9.4261 42.1381 10.0031 42.1381 10.7121C42.1381 11.4211 42.368 11.9981 42.829 12.4421C43.29 12.8861 43.836 13.1081 44.468 13.1081C45.138 13.1081 45.6971 12.8851 46.1441 12.4381C46.4341 12.1471 46.602 11.7421 46.647 11.2231H44.468V10.5021H47.375C47.405 10.6591 47.418 10.8101 47.418 10.9551Z" stroke="white" stroke-width="0.2" stroke-miterlimit="10"/>
<path d="M52.0281 8.44916H49.2961V10.3512H51.7601V11.0722H49.2961V12.9742H52.0281V13.7122H48.5251V7.71216H52.0281V8.44916Z" stroke="white" stroke-width="0.2" stroke-miterlimit="10"/>
<path d="M55.279 13.7122H54.508V8.44916H52.832V7.71216H56.955V8.44916H55.279V13.7122Z" stroke="white" stroke-width="0.2" stroke-miterlimit="10"/>
<path d="M59.938 13.7122V7.71216H60.709V13.7122H59.938Z" stroke="white" stroke-width="0.2" stroke-miterlimit="10"/>
<path d="M64.1281 13.7122H63.3572V8.44916H61.6812V7.71216H65.8042V8.44916H64.1281V13.7122Z" stroke="white" stroke-width="0.2" stroke-miterlimit="10"/>
<path d="M73.6089 12.9371C73.0189 13.5431 72.2859 13.8461 71.4089 13.8461C70.5319 13.8461 69.7989 13.5431 69.2099 12.9371C68.6199 12.3311 68.3259 11.5891 68.3259 10.7121C68.3259 9.83515 68.6199 9.09315 69.2099 8.48715C69.7989 7.88115 70.5319 7.57715 71.4089 7.57715C72.2809 7.57715 73.0129 7.88215 73.6049 8.49115C74.1969 9.10015 74.4929 9.84015 74.4929 10.7121C74.4929 11.5891 74.1979 12.3311 73.6089 12.9371ZM69.7789 12.4341C70.2229 12.8841 70.7659 13.1081 71.4089 13.1081C72.0519 13.1081 72.5959 12.8831 73.0389 12.4341C73.4829 11.9841 73.7059 11.4101 73.7059 10.7121C73.7059 10.0141 73.4829 9.44015 73.0389 8.99015C72.5959 8.54015 72.0519 8.31615 71.4089 8.31615C70.7659 8.31615 70.2229 8.54115 69.7789 8.99015C69.3359 9.44015 69.1129 10.0141 69.1129 10.7121C69.1129 11.4101 69.3359 11.9841 69.7789 12.4341Z" stroke="white" stroke-width="0.2" stroke-miterlimit="10"/>
<path d="M75.5749 13.7122V7.71216H76.513L79.429 12.3792H79.4619L79.429 11.2232V7.71216H80.1999V13.7122H79.3949L76.344 8.81816H76.3109L76.344 9.97416V13.7122H75.5749Z" stroke="white" stroke-width="0.2" stroke-miterlimit="10"/>
<g filter="url(#filter0_ii_366_168311)">
<path d="M10.436 8.25025C10.145 8.55825 9.97302 9.03625 9.97302 9.65525V31.7712C9.97302 32.3912 10.145 32.8682 10.436 33.1762L10.51 33.2482L22.899 20.8592V20.7132V20.5672L10.51 8.17725L10.436 8.25025Z" fill="url(#paint0_linear_366_168311)"/>
<path d="M27.028 24.99L22.899 20.859V20.713V20.567L27.029 16.437L27.122 16.49L32.015 19.27C33.412 20.064 33.412 21.363 32.015 22.158L27.122 24.938L27.028 24.99Z" fill="url(#paint1_linear_366_168311)"/>
<g filter="url(#filter1_i_366_168311)">
<path d="M27.122 24.9369L22.898 20.7129L10.436 33.1759C10.896 33.6639 11.657 33.7239 12.514 33.2379L27.122 24.9369Z" fill="url(#paint2_linear_366_168311)"/>
</g>
<path d="M27.122 16.4891L12.514 8.1891C11.657 7.7021 10.896 7.7631 10.436 8.2511L22.899 20.7141L27.122 16.4891Z" fill="url(#paint3_linear_366_168311)"/>
</g>
<defs>
<filter id="filter0_ii_366_168311" x="9.97302" y="7.85303" width="23.0897" height="25.7207" filterUnits="userSpaceOnUse" color-interpolation-filters="sRGB">
<feFlood flood-opacity="0" result="BackgroundImageFix"/>
<feBlend mode="normal" in="SourceGraphic" in2="BackgroundImageFix" result="shape"/>
<feColorMatrix in="SourceAlpha" type="matrix" values="0 0 0 0 0 0 0 0 0 0 0 0 0 0 0 0 0 0 127 0" result="hardAlpha"/>
<feOffset dy="-0.15"/>
<feComposite in2="hardAlpha" operator="arithmetic" k2="-1" k3="1"/>
<feColorMatrix type="matrix" values="0 0 0 0 0 0 0 0 0 0 0 0 0 0 0 0 0 0 0.12 0"/>
<feBlend mode="normal" in2="shape" result="effect1_innerShadow_366_168311"/>
<feColorMatrix in="SourceAlpha" type="matrix" values="0 0 0 0 0 0 0 0 0 0 0 0 0 0 0 0 0 0 127 0" result="hardAlpha"/>
<feOffset dy="0.15"/>
<feComposite in2="hardAlpha" operator="arithmetic" k2="-1" k3="1"/>
<feColorMatrix type="matrix" values="0 0 0 0 1 0 0 0 0 1 0 0 0 0 1 0 0 0 0.25 0"/>
<feBlend mode="normal" in2="effect1_innerShadow_366_168311" result="effect2_innerShadow_366_168311"/>
</filter>
<filter id="filter1_i_366_168311" x="10.436" y="20.7129" width="16.686" height="12.8608" filterUnits="userSpaceOnUse" color-interpolation-filters="sRGB">
<feFlood flood-opacity="0" result="BackgroundImageFix"/>
<feBlend mode="normal" in="SourceGraphic" in2="BackgroundImageFix" result="shape"/>
<feColorMatrix in="SourceAlpha" type="matrix" values="0 0 0 0 0 0 0 0 0 0 0 0 0 0 0 0 0 0 127 0" result="hardAlpha"/>
<feOffset dy="-0.15"/>
<feComposite in2="hardAlpha" operator="arithmetic" k2="-1" k3="1"/>
<feColorMatrix type="matrix" values="0 0 0 0 0 0 0 0 0 0 0 0 0 0 0 0 0 0 0.08 0"/>
<feBlend mode="normal" in2="shape" result="effect1_innerShadow_366_168311"/>
</filter>
<linearGradient id="paint0_linear_366_168311" x1="21.8008" y1="9.42125" x2="5.01882" y2="26.2032" gradientUnits="userSpaceOnUse">
<stop stop-color="#00A0FF"/>
<stop offset="0.0066" stop-color="#00A1FF"/>
<stop offset="0.2601" stop-color="#00BEFF"/>
<stop offset="0.5122" stop-color="#00D2FF"/>
<stop offset="0.7604" stop-color="#00DFFF"/>
<stop offset="1" stop-color="#00E3FF"/>
</linearGradient>
<linearGradient id="paint1_linear_366_168311" x1="33.8335" y1="20.713" x2="9.63765" y2="20.713" gradientUnits="userSpaceOnUse">
<stop stop-color="#FFE000"/>
<stop offset="0.4087" stop-color="#FFBD00"/>
<stop offset="0.7754" stop-color="#FFA500"/>
<stop offset="1" stop-color="#FF9C00"/>
</linearGradient>
<linearGradient id="paint2_linear_366_168311" x1="24.8281" y1="23.0068" x2="2.06964" y2="45.7653" gradientUnits="userSpaceOnUse">
<stop stop-color="#FF3A44"/>
<stop offset="1" stop-color="#C31162"/>
</linearGradient>
<linearGradient id="paint3_linear_366_168311" x1="7.29743" y1="0.888903" x2="17.4597" y2="11.0512" gradientUnits="userSpaceOnUse">
<stop stop-color="#32A071"/>
<stop offset="0.0685" stop-color="#2DA771"/>
<stop offset="0.4762" stop-color="#15CF74"/>
<stop offset="0.8009" stop-color="#06E775"/>
<stop offset="1" stop-color="#00F076"/>
</linearGradient>
</defs>
</svg>
