<svg width="135" height="41" viewBox="0 0 135 41" fill="none" xmlns="http://www.w3.org/2000/svg">
<rect x="0.5" y="1.21191" width="134" height="39" rx="6.5" fill="black"/>
<rect x="0.5" y="1.21191" width="134" height="39" rx="6.5" stroke="#A6A6A6"/>
<path d="M81.5259 19.9128V22.2038H80.0899V23.7062H81.5259V28.8112C81.5259 30.5544 82.3145 31.2516 84.2984 31.2516C84.647 31.2516 84.9791 31.2101 85.2696 31.1603V29.6745C85.0206 29.6994 84.8628 29.716 84.5889 29.716C83.7007 29.716 83.3106 29.301 83.3106 28.3547V23.7062H85.2696V22.2038H83.3106V19.9128H81.5259Z" fill="white"/>
<path d="M90.3234 31.3762C92.9631 31.3762 94.5817 29.6081 94.5817 26.6779C94.5817 23.7643 92.9548 21.988 90.3234 21.988C87.6838 21.988 86.0568 23.7643 86.0568 26.6779C86.0568 29.6081 87.6755 31.3762 90.3234 31.3762ZM90.3234 29.7907C88.7712 29.7907 87.8996 28.6535 87.8996 26.6779C87.8996 24.7189 88.7712 23.5734 90.3234 23.5734C91.8674 23.5734 92.7473 24.7189 92.7473 26.6779C92.7473 28.6452 91.8674 29.7907 90.3234 29.7907Z" fill="white"/>
<path d="M95.9666 31.2018H97.7513V25.8644C97.7513 24.5944 98.7059 23.7394 100.059 23.7394C100.374 23.7394 100.906 23.7975 101.055 23.8473V22.0876C100.864 22.0378 100.524 22.0129 100.258 22.0129C99.0794 22.0129 98.075 22.6603 97.8177 23.5485H97.6849V22.1623H95.9666V31.2018Z" fill="white"/>
<path d="M105.486 23.507C106.806 23.507 107.669 24.4284 107.711 25.8478H103.145C103.245 24.4367 104.166 23.507 105.486 23.507ZM107.703 28.7614C107.371 29.467 106.632 29.8571 105.553 29.8571C104.125 29.8571 103.204 28.8527 103.145 27.2673V27.1677H109.529V26.5451C109.529 23.7062 108.01 21.988 105.495 21.988C102.946 21.988 101.328 23.8224 101.328 26.7111C101.328 29.5998 102.913 31.3762 105.503 31.3762C107.57 31.3762 109.014 30.3801 109.421 28.7614H107.703Z" fill="white"/>
<path d="M69.8223 27.8637C69.96 30.0834 71.8098 31.503 74.5629 31.503C77.5053 31.503 79.3464 30.0146 79.3464 27.64C79.3464 25.773 78.2968 24.7406 75.7502 24.147L74.3822 23.8114C72.7647 23.4329 72.1109 22.9253 72.1109 22.0391C72.1109 20.9206 73.1261 20.1893 74.6489 20.1893C76.0943 20.1893 77.0923 20.9034 77.273 22.0477H79.1486C79.0367 19.957 77.1956 18.4858 74.6747 18.4858C71.9646 18.4858 70.1579 19.957 70.1579 22.1681C70.1579 23.9921 71.1817 25.0761 73.4272 25.6009L75.0275 25.9881C76.6707 26.3753 77.3934 26.9431 77.3934 27.8895C77.3934 28.9907 76.2578 29.7909 74.7091 29.7909C73.0487 29.7909 71.8958 29.0424 71.7323 27.8637H69.8223Z" fill="white"/>
<path d="M51.335 22.0129C50.1065 22.0129 49.044 22.6271 48.4961 23.6564H48.3633V22.1623H46.6451V34.2067H48.4297V29.8322H48.5708C49.044 30.7868 50.065 31.3513 51.3516 31.3513C53.6343 31.3513 55.087 29.55 55.087 26.6779C55.087 23.8058 53.6343 22.0129 51.335 22.0129ZM50.8287 29.7492C49.3345 29.7492 48.3965 28.5705 48.3965 26.6862C48.3965 24.7936 49.3345 23.6149 50.837 23.6149C52.3477 23.6149 53.2525 24.7687 53.2525 26.6779C53.2525 28.5954 52.3477 29.7492 50.8287 29.7492Z" fill="white"/>
<path d="M61.3318 22.0129C60.1033 22.0129 59.0408 22.6271 58.4929 23.6564H58.3601V22.1623H56.6419V34.2067H58.4265V29.8322H58.5676C59.0408 30.7868 60.0618 31.3513 61.3484 31.3513C63.6311 31.3513 65.0838 29.55 65.0838 26.6779C65.0838 23.8058 63.6311 22.0129 61.3318 22.0129ZM60.8255 29.7492C59.3313 29.7492 58.3933 28.5705 58.3933 26.6862C58.3933 24.7936 59.3313 23.6149 60.8338 23.6149C62.3445 23.6149 63.2493 24.7687 63.2493 26.6779C63.2493 28.5954 62.3445 29.7492 60.8255 29.7492Z" fill="white"/>
<path d="M43.4431 31.2018H45.4907L41.0083 18.787H38.9348L34.4524 31.2018H36.4312L37.5755 27.9067H42.3074L43.4431 31.2018ZM39.8726 21.0411H40.0189L41.817 26.2892H38.0659L39.8726 21.0411Z" fill="white"/>
<path d="M35.6511 9.42261V15.4116H37.8135C39.5981 15.4116 40.6316 14.3118 40.6316 12.3984C40.6316 10.5142 39.5898 9.42261 37.8135 9.42261H35.6511ZM36.5808 10.2693H37.7097C38.9507 10.2693 39.6853 11.0579 39.6853 12.4109C39.6853 13.7847 38.9631 14.5649 37.7097 14.5649H36.5808V10.2693Z" fill="white"/>
<path d="M43.7967 15.4988C45.1165 15.4988 45.9258 14.6147 45.9258 13.1497C45.9258 11.6929 45.1124 10.8047 43.7967 10.8047C42.4769 10.8047 41.6634 11.6929 41.6634 13.1497C41.6634 14.6147 42.4727 15.4988 43.7967 15.4988ZM43.7967 14.7061C43.0206 14.7061 42.5848 14.1375 42.5848 13.1497C42.5848 12.1702 43.0206 11.5974 43.7967 11.5974C44.5687 11.5974 45.0086 12.1702 45.0086 13.1497C45.0086 14.1333 44.5687 14.7061 43.7967 14.7061Z" fill="white"/>
<path d="M52.818 10.8918H51.9256L51.1205 14.3408H51.0499L50.1202 10.8918H49.2652L48.3355 14.3408H48.2691L47.4598 10.8918H46.555L47.8001 15.4116H48.7174L49.6471 12.083H49.7176L50.6515 15.4116H51.577L52.818 10.8918Z" fill="white"/>
<path d="M53.8456 15.4116H54.7379V12.7678C54.7379 12.0623 55.1571 11.6223 55.817 11.6223C56.477 11.6223 56.7924 11.9834 56.7924 12.7097V15.4116H57.6847V12.4856C57.6847 11.4106 57.1286 10.8047 56.12 10.8047C55.4394 10.8047 54.9911 11.1077 54.7711 11.6099H54.7047V10.8918H53.8456V15.4116Z" fill="white"/>
<path d="M59.09 15.4116H59.9824V9.12793H59.09V15.4116Z" fill="white"/>
<path d="M63.3384 15.4988C64.6582 15.4988 65.4675 14.6147 65.4675 13.1497C65.4675 11.6929 64.6541 10.8047 63.3384 10.8047C62.0186 10.8047 61.2051 11.6929 61.2051 13.1497C61.2051 14.6147 62.0144 15.4988 63.3384 15.4988ZM63.3384 14.7061C62.5623 14.7061 62.1265 14.1375 62.1265 13.1497C62.1265 12.1702 62.5623 11.5974 63.3384 11.5974C64.1104 11.5974 64.5503 12.1702 64.5503 13.1497C64.5503 14.1333 64.1104 14.7061 63.3384 14.7061Z" fill="white"/>
<path d="M68.1263 14.7351C67.6407 14.7351 67.2879 14.4985 67.2879 14.0918C67.2879 13.6934 67.5701 13.4817 68.1927 13.4402L69.2967 13.3696V13.7473C69.2967 14.3076 68.7986 14.7351 68.1263 14.7351ZM67.898 15.4863C68.4915 15.4863 68.9854 15.229 69.2552 14.7766H69.3257V15.4116H70.1849V12.3237C70.1849 11.3691 69.5457 10.8047 68.4126 10.8047C67.3875 10.8047 66.657 11.3027 66.5657 12.0789H67.429C67.5286 11.7593 67.8731 11.5767 68.3711 11.5767C68.9812 11.5767 69.2967 11.8464 69.2967 12.3237V12.7139L68.0723 12.7844C66.9974 12.8508 66.3914 13.3198 66.3914 14.1333C66.3914 14.9592 67.0264 15.4863 67.898 15.4863Z" fill="white"/>
<path d="M73.213 15.4863C73.8355 15.4863 74.3626 15.1917 74.6324 14.6978H74.703V15.4116H75.558V9.12793H74.6656V11.6099H74.5992C74.3543 11.1118 73.8314 10.8171 73.213 10.8171C72.0716 10.8171 71.337 11.7219 71.337 13.1497C71.337 14.5815 72.0633 15.4863 73.213 15.4863ZM73.4662 11.6182C74.2132 11.6182 74.6822 12.2117 74.6822 13.1538C74.6822 14.1001 74.2174 14.6853 73.4662 14.6853C72.7108 14.6853 72.2584 14.1084 72.2584 13.1497C72.2584 12.1992 72.7149 11.6182 73.4662 11.6182Z" fill="white"/>
<path d="M81.3444 15.4988C82.6643 15.4988 83.4736 14.6147 83.4736 13.1497C83.4736 11.6929 82.6601 10.8047 81.3444 10.8047C80.0246 10.8047 79.2111 11.6929 79.2111 13.1497C79.2111 14.6147 80.0205 15.4988 81.3444 15.4988ZM81.3444 14.7061C80.5683 14.7061 80.1325 14.1375 80.1325 13.1497C80.1325 12.1702 80.5683 11.5974 81.3444 11.5974C82.1164 11.5974 82.5563 12.1702 82.5563 13.1497C82.5563 14.1333 82.1164 14.7061 81.3444 14.7061Z" fill="white"/>
<path d="M84.6548 15.4116H85.5471V12.7678C85.5471 12.0623 85.9663 11.6223 86.6262 11.6223C87.2861 11.6223 87.6016 11.9834 87.6016 12.7097V15.4116H88.4939V12.4856C88.4939 11.4106 87.9377 10.8047 86.9292 10.8047C86.2485 10.8047 85.8003 11.1077 85.5803 11.6099H85.5139V10.8918H84.6548V15.4116Z" fill="white"/>
<path d="M92.6036 9.76709V10.9126H91.8856V11.6638H92.6036V14.2163C92.6036 15.0879 92.9979 15.4365 93.9898 15.4365C94.1642 15.4365 94.3302 15.4158 94.4754 15.3909V14.6479C94.3509 14.6604 94.2721 14.6687 94.1351 14.6687C93.691 14.6687 93.4959 14.4612 93.4959 13.988V11.6638H94.4754V10.9126H93.4959V9.76709H92.6036Z" fill="white"/>
<path d="M95.6732 15.4116H96.5656V12.772C96.5656 12.0872 96.9723 11.6265 97.7028 11.6265C98.3336 11.6265 98.6698 11.9917 98.6698 12.7139V15.4116H99.5622V12.4939C99.5622 11.4189 98.9687 10.8088 98.0058 10.8088C97.3251 10.8088 96.8478 11.1118 96.6278 11.6182H96.5573V9.12793H95.6732V15.4116Z" fill="white"/>
<path d="M102.781 11.5642C103.441 11.5642 103.873 12.0249 103.894 12.7346H101.611C101.661 12.0291 102.121 11.5642 102.781 11.5642ZM103.889 14.1914C103.723 14.5442 103.354 14.7393 102.814 14.7393C102.101 14.7393 101.64 14.2371 101.611 13.4443V13.3945H104.802V13.0833C104.802 11.6638 104.043 10.8047 102.785 10.8047C101.511 10.8047 100.702 11.7219 100.702 13.1663C100.702 14.6106 101.495 15.4988 102.789 15.4988C103.823 15.4988 104.545 15.0007 104.748 14.1914H103.889Z" fill="white"/>
<path d="M24.769 21.013C24.7907 19.332 25.6934 17.7414 27.1256 16.8609C26.2221 15.5706 24.7088 14.7525 23.1344 14.7032C21.4552 14.527 19.8272 15.7081 18.9715 15.7081C18.0992 15.7081 16.7817 14.7207 15.363 14.7499C13.5137 14.8097 11.7898 15.8611 10.8901 17.4778C8.95607 20.8262 10.3987 25.7473 12.2513 28.4539C13.1782 29.7792 14.2615 31.2597 15.6789 31.2072C17.066 31.1496 17.584 30.3227 19.2583 30.3227C20.9171 30.3227 21.4031 31.2072 22.8493 31.1738C24.3377 31.1496 25.2754 29.8426 26.1698 28.5047C26.8358 27.5603 27.3483 26.5166 27.6882 25.4121C25.9391 24.6724 24.771 22.9121 24.769 21.013Z" fill="white"/>
<path d="M22.0373 12.9232C22.8489 11.949 23.2487 10.6968 23.1518 9.43262C21.912 9.56284 20.7668 10.1554 19.9443 11.0922C19.14 12.0076 18.7214 13.2377 18.8006 14.4536C20.0408 14.4664 21.2601 13.8899 22.0373 12.9232Z" fill="white"/>
</svg>
