<svg width="24" height="25" viewBox="0 0 24 25" fill="none" xmlns="http://www.w3.org/2000/svg">
<path fill-rule="evenodd" clip-rule="evenodd" d="M12 0.711914C5.37527 0.711914 0 6.08719 0 12.7119C0 19.3367 5.37527 24.7119 12 24.7119C18.6117 24.7119 24 19.3367 24 12.7119C24 6.08719 18.6117 0.711914 12 0.711914ZM19.9262 6.24337C21.3579 7.9874 22.217 10.213 22.243 12.6208C21.9046 12.5558 18.5206 11.8659 15.1106 12.2954C15.0325 12.1262 14.9675 11.944 14.8894 11.7618C14.6811 11.2673 14.4469 10.7597 14.2126 10.2781C17.9869 8.74231 19.705 6.5297 19.9262 6.24337ZM12 2.48198C14.603 2.48198 16.9848 3.45812 18.7939 5.05899C18.6117 5.31929 17.0629 7.38871 13.4186 8.75529C11.7397 5.6707 9.87855 3.14575 9.5922 2.7553C10.3601 2.57308 11.1671 2.48198 12 2.48198ZM7.63995 3.4451C7.91325 3.80953 9.73538 6.34749 11.4404 9.36699C6.65076 10.6425 2.42083 10.6165 1.96529 10.6165C2.62907 7.44076 4.77657 4.79868 7.63995 3.4451ZM1.74404 12.725C1.74404 12.6208 1.74404 12.5167 1.74404 12.4126C2.18655 12.4256 7.15835 12.4907 12.2733 10.9549C12.5727 11.5275 12.846 12.1132 13.1063 12.6989C12.9761 12.7379 12.8329 12.777 12.7028 12.816C7.41865 14.521 4.60738 19.1804 4.3731 19.5709C2.7462 17.7618 1.74404 15.354 1.74404 12.725ZM12 22.9679C9.6312 22.9679 7.44469 22.1609 5.71367 20.8073C5.89588 20.4299 7.97827 16.4213 13.757 14.4039C13.783 14.3909 13.7961 14.3909 13.8221 14.3779C15.2668 18.1132 15.8525 21.2498 16.0087 22.1479C14.7722 22.6815 13.4186 22.9679 12 22.9679ZM17.7136 21.2108C17.6096 20.5861 17.0629 17.5926 15.7223 13.9093C18.9371 13.4017 21.7484 14.2347 22.0998 14.3519C21.6573 17.2022 20.0173 19.662 17.7136 21.2108Z" fill="#98A2B3"/>
</svg>
