<svg width="24" height="25" viewBox="0 0 24 25" fill="none" xmlns="http://www.w3.org/2000/svg">
<g clip-path="url(#clip0_366_168317)">
<path d="M24 12.7119C24 6.08449 18.6274 0.711914 12 0.711914C5.37258 0.711914 0 6.08449 0 12.7119C0 18.7014 4.3882 23.6659 10.125 24.5661V16.1807H7.07812V12.7119H10.125V10.0682C10.125 7.06066 11.9166 5.39941 14.6576 5.39941C15.9701 5.39941 17.3438 5.63379 17.3438 5.63379V8.58691H15.8306C14.34 8.58691 13.875 9.51199 13.875 10.4619V12.7119H17.2031L16.6711 16.1807H13.875V24.5661C19.6118 23.6659 24 18.7014 24 12.7119Z" fill="#98A2B3"/>
</g>
<defs>
<clipPath id="clip0_366_168317">
<rect width="24" height="24" fill="white" transform="translate(0 0.711914)"/>
</clipPath>
</defs>
</svg>
