<svg width="24" height="25" viewBox="0 0 24 25" fill="none" xmlns="http://www.w3.org/2000/svg">
<g clip-path="url(#clip0_366_168318)">
<path fill-rule="evenodd" clip-rule="evenodd" d="M12 0.711914C5.3724 0.711914 0 6.09271 0 12.7323C0 18.0423 3.438 22.5483 8.2068 24.1371C8.8068 24.2475 9.0252 23.8767 9.0252 23.5575C9.0252 23.2731 9.0156 22.5159 9.0096 21.5139C5.6712 22.2399 4.9668 19.9023 4.9668 19.9023C4.422 18.5127 3.6348 18.1431 3.6348 18.1431C2.5452 17.3991 3.7176 17.4135 3.7176 17.4135C4.9212 17.4975 5.5548 18.6519 5.5548 18.6519C6.6252 20.4879 8.364 19.9575 9.0468 19.6503C9.1572 18.8739 9.4668 18.3447 9.81 18.0447C7.146 17.7411 4.344 16.7091 4.344 12.1035C4.344 10.7919 4.812 9.71791 5.5788 8.87791C5.4552 8.57431 5.0436 7.35151 5.6964 5.69791C5.6964 5.69791 6.7044 5.37391 8.9964 6.92911C9.97532 6.66213 10.9853 6.52614 12 6.52471C13.02 6.52951 14.046 6.66271 15.0048 6.92911C17.2956 5.37391 18.3012 5.69671 18.3012 5.69671C18.9564 7.35151 18.5436 8.57431 18.4212 8.87791C19.1892 9.71791 19.6548 10.7919 19.6548 12.1035C19.6548 16.7211 16.848 17.7375 14.1756 18.0351C14.6064 18.4059 14.9892 19.1391 14.9892 20.2611C14.9892 21.8667 14.9748 23.1639 14.9748 23.5575C14.9748 23.8791 15.1908 24.2535 15.8004 24.1359C18.19 23.3344 20.2672 21.8023 21.7386 19.756C23.2099 17.7097 24.001 15.2527 24 12.7323C24 6.09271 18.6264 0.711914 12 0.711914Z" fill="#98A2B3"/>
</g>
<defs>
<clipPath id="clip0_366_168318">
<rect width="24" height="24" fill="white" transform="translate(0 0.711914)"/>
</clipPath>
</defs>
</svg>
