<svg width="20" height="20" viewBox="0 0 20 20" fill="none" xmlns="http://www.w3.org/2000/svg">
<path d="M1.66666 9.99996H18.3333M1.66666 9.99996C1.66666 14.6023 5.39762 18.3333 9.99999 18.3333M1.66666 9.99996C1.66666 5.39759 5.39762 1.66663 9.99999 1.66663M18.3333 9.99996C18.3333 14.6023 14.6024 18.3333 9.99999 18.3333M18.3333 9.99996C18.3333 5.39759 14.6024 1.66663 9.99999 1.66663M9.99999 1.66663C12.0844 3.94859 13.269 6.90999 13.3333 9.99996C13.269 13.0899 12.0844 16.0513 9.99999 18.3333M9.99999 1.66663C7.91559 3.94859 6.73103 6.90999 6.66666 9.99996C6.73103 13.0899 7.91559 16.0513 9.99999 18.3333" stroke="#475467" stroke-width="1.66667" stroke-linecap="round" stroke-linejoin="round"/>
</svg>
