<svg width="24" height="25" viewBox="0 0 24 25" fill="none" xmlns="http://www.w3.org/2000/svg">
<g clip-path="url(#clip0_366_168316)">
<path d="M22.2234 0.711914H1.77187C0.792187 0.711914 0 1.48535 0 2.4416V22.9775C0 23.9338 0.792187 24.7119 1.77187 24.7119H22.2234C23.2031 24.7119 24 23.9338 24 22.9822V2.4416C24 1.48535 23.2031 0.711914 22.2234 0.711914ZM7.12031 21.1635H3.55781V9.70723H7.12031V21.1635ZM5.33906 8.14629C4.19531 8.14629 3.27188 7.22285 3.27188 6.08379C3.27188 4.94473 4.19531 4.02129 5.33906 4.02129C6.47813 4.02129 7.40156 4.94473 7.40156 6.08379C7.40156 7.21816 6.47813 8.14629 5.33906 8.14629ZM20.4516 21.1635H16.8937V15.5947C16.8937 14.2682 16.8703 12.5572 15.0422 12.5572C13.1906 12.5572 12.9094 14.0057 12.9094 15.501V21.1635H9.35625V9.70723H12.7687V11.2729H12.8156C13.2891 10.3729 14.4516 9.42129 16.1813 9.42129C19.7859 9.42129 20.4516 11.7932 20.4516 14.8775V21.1635Z" fill="#98A2B3"/>
</g>
<defs>
<clipPath id="clip0_366_168316">
<rect width="24" height="24" fill="white" transform="translate(0 0.711914)"/>
</clipPath>
</defs>
</svg>
