<svg width="24" height="25" viewBox="0 0 24 25" fill="none" xmlns="http://www.w3.org/2000/svg">
<path d="M6.09436 11.9407C6.03221 11.5401 5.99996 11.1298 5.99996 10.7119C5.99996 6.29364 9.60525 2.71191 14.0526 2.71191C18.4999 2.71191 22.1052 6.29364 22.1052 10.7119C22.1052 11.71 21.9213 12.6654 21.5852 13.5464C21.5154 13.7294 21.4804 13.8209 21.4646 13.8923C21.4489 13.9631 21.4428 14.0129 21.4411 14.0854C21.4394 14.1585 21.4493 14.2391 21.4692 14.4002L21.8717 17.6704C21.9153 18.0244 21.9371 18.2015 21.8782 18.3301C21.8266 18.4429 21.735 18.5324 21.6211 18.5814C21.4911 18.6373 21.3146 18.6115 20.9617 18.5597L17.7765 18.0928C17.6101 18.0684 17.527 18.0563 17.4512 18.0567C17.3763 18.0571 17.3245 18.0626 17.2511 18.0781C17.177 18.0936 17.0823 18.1291 16.893 18.2C16.0097 18.5309 15.0524 18.7119 14.0526 18.7119C13.6344 18.7119 13.2237 18.6802 12.8227 18.6192M7.63158 22.7119C10.5965 22.7119 13 20.2495 13 17.2119C13 14.1743 10.5965 11.7119 7.63158 11.7119C4.66668 11.7119 2.26316 14.1743 2.26316 17.2119C2.26316 17.8225 2.36028 18.4099 2.53955 18.9586C2.61533 19.1906 2.65322 19.3066 2.66566 19.3859C2.67864 19.4686 2.68091 19.515 2.67608 19.5986C2.67145 19.6787 2.65141 19.7692 2.61134 19.9502L2 22.7119L4.9948 22.3029C5.15827 22.2806 5.24 22.2694 5.31137 22.2699C5.38652 22.2704 5.42641 22.2745 5.50011 22.2892C5.5701 22.3031 5.67416 22.3399 5.88227 22.4133C6.43059 22.6068 7.01911 22.7119 7.63158 22.7119Z" stroke="#D42427" stroke-width="2" stroke-linecap="round" stroke-linejoin="round"/>
</svg>
