<svg width="21" height="20" viewBox="0 0 21 20" fill="none" xmlns="http://www.w3.org/2000/svg">
<path d="M7.99962 12.7119C7.99962 12.7119 9.31213 14.2119 11.4996 14.2119C13.6871 14.2119 14.9996 12.7119 14.9996 12.7119M14.2496 7.71191H14.2596M8.74962 7.71191H8.75962M11.4996 18.7119C16.194 18.7119 19.9996 14.9063 19.9996 10.2119C19.9996 5.51749 16.194 1.71191 11.4996 1.71191C6.8052 1.71191 2.99962 5.51749 2.99962 10.2119C2.99962 11.1619 3.15547 12.0755 3.443 12.9285C3.55119 13.2495 3.60529 13.41 3.61505 13.5333C3.62469 13.6551 3.6174 13.7405 3.58728 13.8589C3.55677 13.9787 3.48942 14.1034 3.35472 14.3527L1.71906 17.3803C1.48575 17.8121 1.36909 18.028 1.3952 18.1947C1.41794 18.3398 1.50337 18.4676 1.6288 18.5441C1.7728 18.632 2.01692 18.6068 2.50517 18.5563L7.62619 18.0269C7.78127 18.0109 7.85881 18.0029 7.92949 18.0056C7.999 18.0082 8.04807 18.0148 8.11586 18.0304C8.18478 18.0463 8.27145 18.0797 8.44478 18.1465C9.39283 18.5117 10.4228 18.7119 11.4996 18.7119ZM14.7496 7.71191C14.7496 7.98806 14.5258 8.21191 14.2496 8.21191C13.9735 8.21191 13.7496 7.98806 13.7496 7.71191C13.7496 7.43577 13.9735 7.21191 14.2496 7.21191C14.5258 7.21191 14.7496 7.43577 14.7496 7.71191ZM9.24962 7.71191C9.24962 7.98806 9.02577 8.21191 8.74962 8.21191C8.47348 8.21191 8.24962 7.98806 8.24962 7.71191C8.24962 7.43577 8.47348 7.21191 8.74962 7.21191C9.02577 7.21191 9.24962 7.43577 9.24962 7.71191Z" stroke="#D42427" stroke-width="2" stroke-linecap="round" stroke-linejoin="round"/>
</svg>
