<svg width="48" height="48" viewBox="0 0 48 48" fill="none" xmlns="http://www.w3.org/2000/svg">
<g clip-path="url(#clip0_408_5474)">
<rect width="48" height="48" rx="24" fill="#FEF3F2"/>
<path d="M29.8708 24.5447C29.8918 24.5657 29.8918 24.5995 29.8708 24.6205C29.8498 24.6415 29.8159 24.6415 29.7949 24.6205C29.7739 24.5995 29.7739 24.5657 29.7949 24.5447C29.8159 24.5237 29.8509 24.5249 29.8708 24.5447" stroke="#70707B" stroke-width="1.5" stroke-linecap="round" stroke-linejoin="round"/>
<path d="M27.1058 18.7244C27.352 18.1982 27.5002 17.6184 27.5002 17.0001C27.5002 14.7449 25.672 12.9167 23.4168 12.9167C21.1617 12.9167 19.3335 14.7449 19.3335 17.0001C19.3335 17.7269 19.5388 18.4001 19.8725 18.9904" stroke="#70707B" stroke-width="1.5" stroke-linecap="round" stroke-linejoin="round"/>
<path d="M12.6693 22.25C12.1222 22.5685 11.75 23.1553 11.75 23.8343C11.75 24.8505 12.5737 25.6742 13.5898 25.6742H14.6667" stroke="#70707B" stroke-width="1.5" stroke-linecap="round" stroke-linejoin="round"/>
<path fill-rule="evenodd" clip-rule="evenodd" d="M31.5832 17.5833V20.5629C32.4208 21.3189 33.0858 22.2616 33.4802 23.3408H34.4998C35.1438 23.3408 35.6665 23.8634 35.6665 24.5074V28.0833C35.6665 28.7273 35.1438 29.2499 34.4998 29.2499H32.9703C32.3578 30.3093 31.4735 31.1913 30.4165 31.8061V33.9166C30.4165 34.5606 29.8938 35.0833 29.2498 35.0833H26.9165C26.2725 35.0833 25.7498 34.5606 25.7498 33.9166V32.7499H21.6665V33.7626C21.6665 34.4066 21.1438 34.9293 20.4998 34.9293H18.1665C17.5225 34.9293 16.9998 34.4066 16.9998 33.7626V30.9568C15.5707 29.6746 14.6665 27.8208 14.6665 25.7499C14.6665 21.8836 17.8002 18.7499 21.6665 18.7499H26.9468C27.4473 18.7499 27.9327 18.5854 28.3317 18.2844C28.9138 17.8458 29.6325 17.5833 30.4165 17.5833H31.5832V17.5833Z" stroke="#70707B" stroke-width="1.5" stroke-linecap="round" stroke-linejoin="round"/>
<line x1="0.707107" y1="-0.707107" x2="48.7071" y2="47.2929" stroke="#F97066" stroke-width="2"/>
</g>
<rect x="1" y="1" width="46" height="46" rx="23" stroke="#F97066" stroke-width="2"/>
<defs>
<clipPath id="clip0_408_5474">
<rect width="48" height="48" rx="24" fill="white"/>
</clipPath>
</defs>
</svg>
