<svg width="24" height="25" viewBox="0 0 24 25" fill="none" xmlns="http://www.w3.org/2000/svg">
<path d="M7.55016 22.4621C16.6045 22.4621 21.5583 14.9589 21.5583 8.45402C21.5583 8.24308 21.5536 8.02746 21.5442 7.81652C22.5079 7.11962 23.3395 6.25641 24 5.26746C23.1025 5.66676 22.1496 5.92754 21.1739 6.04089C22.2013 5.42507 22.9705 4.45763 23.3391 3.31793C22.3726 3.89072 21.3156 4.29477 20.2134 4.51277C19.4708 3.72372 18.489 3.20127 17.4197 3.02621C16.3504 2.85114 15.2532 3.03321 14.2977 3.54425C13.3423 4.0553 12.5818 4.86686 12.1338 5.85347C11.6859 6.84008 11.5754 7.94677 11.8195 9.00246C9.86249 8.90425 7.94794 8.39586 6.19998 7.51026C4.45203 6.62465 2.90969 5.38159 1.67297 3.86168C1.0444 4.9454 0.852057 6.2278 1.13503 7.44825C1.418 8.6687 2.15506 9.73561 3.19641 10.4321C2.41463 10.4073 1.64998 10.1968 0.965625 9.81808V9.87902C0.964925 11.0163 1.3581 12.1187 2.07831 12.9989C2.79852 13.8791 3.80132 14.4827 4.91625 14.7071C4.19206 14.9053 3.43198 14.9342 2.69484 14.7915C3.00945 15.7696 3.62157 16.625 4.44577 17.2385C5.26997 17.8519 6.26512 18.1928 7.29234 18.2134C5.54842 19.5833 3.39417 20.3263 1.17656 20.3228C0.783287 20.3222 0.390399 20.2981 0 20.2506C2.25286 21.6959 4.87353 22.4635 7.55016 22.4621Z" fill="#98A2B3"/>
</svg>
