<svg width="24" height="24" viewBox="0 0 24 24" fill="none" xmlns="http://www.w3.org/2000/svg">
<g clip-path="url(#clip0_867_2801)">
<path d="M10.8985 0.801531C10.2703 0.862469 9.28597 1.06403 8.62503 1.27497C3.15003 3.02341 -0.126528 8.52653 0.965659 14.1562C1.19535 15.3422 1.76722 16.8187 2.3766 17.8125L2.5641 18.1172L1.65941 20.2265C1.11097 21.5015 0.754722 22.3968 0.750034 22.4906C0.745347 22.9781 1.22347 23.3484 1.68753 23.2172C1.7766 23.189 2.76097 22.7812 3.87191 22.3031L5.89691 21.4359L6.14535 21.6C6.28597 21.689 6.71253 21.914 7.09222 22.1015C12.1078 24.5812 18.225 22.9172 21.3516 18.2343C24.3328 13.7672 23.7422 7.85622 19.9453 4.05466C17.5547 1.66403 14.2828 0.487469 10.8985 0.801531ZM8.89691 6.15934C8.96722 6.19684 9.37503 6.58122 9.80628 7.01716C10.6641 7.88434 10.7344 7.99684 10.636 8.36716C10.5985 8.51247 10.4719 8.66716 10.0875 9.06091L9.58597 9.56247L9.59535 9.83434C9.6141 10.5328 10.2 11.5031 11.2453 12.5812C12.3282 13.6922 13.4391 14.3859 14.1657 14.4047L14.4375 14.414L14.9438 13.9078C15.5063 13.3453 15.6516 13.2703 16.0078 13.364C16.1625 13.4062 16.3453 13.5656 17.025 14.2406C17.7328 14.9484 17.8594 15.0984 17.9063 15.2765C18.0235 15.7265 17.8407 16.0547 17.0016 16.8609C16.2563 17.5781 15.8297 17.7468 14.7657 17.7375C14.0532 17.7328 13.5657 17.6297 12.8438 17.325C10.6453 16.3968 7.87972 13.7062 6.81566 11.4609C6.15941 10.0781 6.06097 8.74216 6.54378 7.74841C6.75003 7.32184 7.89378 6.19684 8.22191 6.09372C8.40472 6.03747 8.72816 6.07028 8.89691 6.15934Z" fill="#70707B"/>
</g>
<defs>
<clipPath id="clip0_867_2801">
<rect width="24" height="24" fill="white"/>
</clipPath>
</defs>
</svg>
