<svg width="24" height="24" viewBox="0 0 24 24" fill="none" xmlns="http://www.w3.org/2000/svg">
<path d="M1.93125 0.09375C1.47656 0.215624 1.12031 0.421875 0.76875 0.768749C0.417188 1.125 0.210938 1.47656 0.09375 1.95C0 2.30625 0 2.48906 0 12C0 21.5109 0 21.6937 0.09375 22.05C0.210938 22.5234 0.417188 22.875 0.76875 23.2312C1.125 23.5828 1.47656 23.7891 1.95 23.9062C2.30625 24 2.48906 24 12 24C21.5109 24 21.6938 24 22.05 23.9062C22.5234 23.7891 22.875 23.5828 23.2313 23.2312C23.5828 22.875 23.7891 22.5234 23.9062 22.05C24 21.6937 24 21.5109 24 12C24 2.48906 24 2.30625 23.9062 1.95C23.7844 1.46719 23.5828 1.12031 23.2078 0.75C22.8375 0.389061 22.5422 0.215624 22.05 0.09375C21.6938 0 21.5016 0 11.9813 0.00468636C2.55938 0.00468636 2.26406 0.00937462 1.93125 0.09375ZM10.7906 6.68906C11.9344 8.35781 12.8906 9.72656 12.9188 9.73125C12.9422 9.73594 14.1 8.41406 15.4922 6.79219C16.8844 5.17031 18.0656 3.79688 18.1219 3.74531C18.2109 3.66094 18.2766 3.65625 18.9141 3.66562L19.6078 3.67969L16.6641 7.10156C15.0469 8.98125 13.6875 10.5656 13.6406 10.6172C13.5563 10.7109 13.6172 10.8047 16.8563 15.5156C18.6703 18.1594 20.1562 20.325 20.1562 20.3297C20.1562 20.3391 19.0641 20.3437 17.7281 20.3437H15.3L13.0828 17.1094C11.8594 15.3328 10.8469 13.8844 10.8328 13.8984C10.8141 13.9078 9.55781 15.3609 8.03906 17.1281L5.27344 20.3437H4.55625H3.83438L4.02188 20.1187C4.125 19.9969 5.55938 18.3281 7.20938 16.4156L10.2094 12.9281L7.4625 8.93906C5.95781 6.74062 4.52344 4.65469 4.27969 4.29844L3.83906 3.65625H6.27188H8.70938L10.7906 6.68906Z" fill="#70707B"/>
<path d="M5.86914 4.83726C6.07539 5.15133 15.9098 19.2045 15.9566 19.256C15.9988 19.2982 16.2707 19.3123 17.1004 19.3029L18.1832 19.2888L13.1066 12.0232L8.02539 4.75758L6.91445 4.74351L5.79883 4.73414L5.86914 4.83726Z" fill="#70707B"/>
</svg>
