<svg width="32" height="32" viewBox="0 0 32 32" fill="none" xmlns="http://www.w3.org/2000/svg">
<path d="M11.9556 32H5.33433C3.91957 32 2.56277 31.4381 1.56239 30.4379C0.562008 29.4377 0 28.0812 0 26.6667V20C0 18.5855 0.562008 17.229 1.56239 16.2288C2.56277 15.2286 3.91957 14.6667 5.33433 14.6667H17.1459C17.8676 14.667 18.577 14.8536 19.2055 15.2084C19.8339 15.5632 20.3602 16.0743 20.7332 16.692L25.0233 11.9787C25.3782 11.5885 25.8065 11.2721 26.2837 11.0475C26.7609 10.823 27.2777 10.6946 27.8046 10.6699C28.3314 10.6451 28.858 10.7244 29.3542 10.9032C29.8504 11.082 30.3065 11.3569 30.6964 11.712C31.4743 12.4266 31.9406 13.418 31.9947 14.4728C32.0488 15.5277 31.6865 16.5616 30.9858 17.352L21.9174 27.5347C20.6653 28.9387 19.1306 30.0623 17.4138 30.8318C15.697 31.6014 13.837 31.9995 11.9556 32ZM5.33433 17.3333C4.62695 17.3333 3.94855 17.6143 3.44836 18.1144C2.94817 18.6145 2.66716 19.2928 2.66716 20V26.6667C2.66716 27.3739 2.94817 28.0522 3.44836 28.5523C3.94855 29.0524 4.62695 29.3333 5.33433 29.3333H11.9556C13.4597 29.3327 14.9468 29.0143 16.3193 28.399C17.6918 27.7836 18.9187 26.8852 19.9197 25.7627L28.9947 15.5787C29.2303 15.3133 29.3523 14.9661 29.3343 14.6117C29.3164 14.2573 29.1599 13.9242 28.8987 13.684C28.6331 13.4452 28.2848 13.3194 27.9279 13.3333C27.7509 13.3408 27.5773 13.3835 27.417 13.4588C27.2567 13.5341 27.113 13.6406 26.9944 13.772L21.0919 20.2667C20.8328 20.9837 20.3838 21.6169 19.7929 22.0988C19.2019 22.5806 18.4913 22.8931 17.7366 23.0027L10.854 23.9867C10.5039 24.0369 10.1481 23.946 9.865 23.7339C9.58189 23.5219 9.39463 23.2061 9.34441 22.856C9.29418 22.5059 9.38511 22.1502 9.59719 21.8672C9.80927 21.5841 10.1251 21.3969 10.4753 21.3467L17.3592 20.364C17.7414 20.3106 18.0889 20.1142 18.3318 19.8144C18.5747 19.5146 18.6947 19.1339 18.6676 18.7491C18.6405 18.3643 18.4683 18.0041 18.1858 17.7413C17.9034 17.4785 17.5317 17.3327 17.1459 17.3333H5.33433ZM14.6694 12.0987C14.065 12.1003 13.4782 11.8952 13.0064 11.5173C10.7233 9.68533 8.00149 6.93333 8.00149 4.26667C7.96875 3.17115 8.37127 2.10726 9.12101 1.30769C9.87075 0.508111 10.9067 0.0379363 12.0022 0C12.9989 0.0038811 13.9551 0.394423 14.6694 1.08933C15.3837 0.394423 16.3399 0.0038811 17.3366 0C18.4321 0.0379363 19.468 0.508111 20.2178 1.30769C20.9675 2.10726 21.37 3.17115 21.3373 4.26667C21.3373 6.93333 18.6155 9.68533 16.331 11.5187C15.8595 11.8957 15.2732 12.1004 14.6694 12.0987ZM12.0022 2.66667C11.6146 2.70555 11.2578 2.89496 11.0084 3.19417C10.759 3.49337 10.637 3.87848 10.6687 4.26667C10.6687 5.46667 12.2036 7.45333 14.6774 9.43867C17.1352 7.45333 18.6701 5.46667 18.6701 4.26667C18.7018 3.87848 18.5798 3.49337 18.3304 3.19417C18.081 2.89496 17.7242 2.70555 17.3366 2.66667C16.949 2.70555 16.5921 2.89496 16.3427 3.19417C16.0933 3.49337 15.9713 3.87848 16.003 4.26667C16.003 4.62029 15.8625 4.95943 15.6124 5.20948C15.3623 5.45952 15.0231 5.6 14.6694 5.6C14.3157 5.6 13.9765 5.45952 13.7264 5.20948C13.4763 4.95943 13.3358 4.62029 13.3358 4.26667C13.3675 3.87848 13.2455 3.49337 12.9961 3.19417C12.7467 2.89496 12.3898 2.70555 12.0022 2.66667Z" fill="black"/>
</svg>
