<svg width="24" height="25" viewBox="0 0 24 25" fill="none" xmlns="http://www.w3.org/2000/svg">
<path d="M8.09 12.13H3.4C3.48 7.45997 4.4 6.68997 7.27 4.98997C7.6 4.78997 7.71 4.36997 7.51 4.02997C7.32 3.69997 6.89 3.58997 6.56 3.78997C3.18 5.78997 2 7.00997 2 12.82V18.21C2 19.92 3.39 21.3 5.09 21.3H8.09C9.85 21.3 11.18 19.97 11.18 18.21V15.21C11.18 13.46 9.85 12.13 8.09 12.13Z" fill="black"/>
<path d="M18.9101 12.13H14.2201C14.3001 7.45997 15.2201 6.68997 18.0901 4.98997C18.4201 4.78997 18.5301 4.36997 18.3301 4.02997C18.1301 3.69997 17.7101 3.58997 17.3701 3.78997C13.9901 5.78997 12.8101 7.00997 12.8101 12.83V18.22C12.8101 19.93 14.2001 21.31 15.9001 21.31H18.9001C20.6601 21.31 21.9901 19.98 21.9901 18.22V15.22C22.0001 13.46 20.6701 12.13 18.9101 12.13Z" fill="black"/>
</svg>
