<svg width="133" height="31" viewBox="0 0 133 31" fill="none" xmlns="http://www.w3.org/2000/svg">
<path d="M97.2473 5.37913L97.2473 1.18188H97.8913V24.6864H97.2473V5.37913Z" fill="black"/>
<path d="M123.467 23.3286H124.183C124.745 23.3286 125.065 23.0091 125.065 22.4473V20.0787H123.467C123.026 20.0787 122.806 20.299 122.806 20.7397V22.6676C122.806 23.1082 123.026 23.3286 123.467 23.3286ZM121.539 23.0532V20.3541C121.539 19.5389 122.156 18.922 122.971 18.922H126.331V26.3581H125.065V23.9345H125.009C124.932 24.0336 124.833 24.1328 124.723 24.2099C124.536 24.3531 124.26 24.4853 123.908 24.4853H122.971C122.178 24.4853 121.539 23.8463 121.539 23.0532Z" fill="black"/>
<path d="M119.281 24.4875V18.9242H120.547V24.4875H119.281ZM119.281 18.1531V16.7209H120.547V18.1531H119.281Z" fill="black"/>
<path d="M113.555 24.4868V16.9406H114.822V19.4743H114.877C114.943 19.3531 115.031 19.243 115.152 19.1438C115.34 18.9786 115.648 18.8133 116.089 18.8133H116.75C117.587 18.8133 118.182 19.4082 118.182 20.2455V24.4868H116.915V20.6311C116.915 20.1904 116.695 19.9701 116.254 19.9701H115.758C115.13 19.9701 114.822 20.2785 114.822 20.9065V24.4868H113.555Z" fill="black"/>
<path d="M108.707 23.0532V20.3541C108.707 19.5169 109.302 18.922 110.139 18.922H112.783V19.6931L112.398 20.0787H110.635C110.194 20.0787 109.974 20.2991 109.974 20.7397V22.6676C109.974 23.1082 110.194 23.3286 110.635 23.3286H112.783V24.4853H110.139C109.302 24.4853 108.707 23.8904 108.707 23.0532Z" fill="black"/>
<path d="M102.981 23.1657V20.2463C102.981 19.4091 103.575 18.8142 104.413 18.8142H106.396C107.233 18.8142 107.828 19.4091 107.828 20.2463V23.1657C107.828 23.9919 107.211 24.5978 106.396 24.5978H104.413C103.575 24.5978 102.981 24.0029 102.981 23.1657ZM104.908 23.4411H105.9C106.341 23.4411 106.561 23.2208 106.561 22.7801V20.6319C106.561 20.1913 106.341 19.9709 105.9 19.9709H104.908C104.468 19.9709 104.247 20.1913 104.247 20.6319V22.7801C104.247 23.2208 104.468 23.4411 104.908 23.4411Z" fill="black"/>
<path d="M130.125 11.5258H130.676C131.238 11.5258 131.557 11.2063 131.557 10.6445V10.2589H130.125C129.717 10.2589 129.519 10.4462 129.519 10.8097V10.9199C129.519 11.3275 129.717 11.5258 130.125 11.5258ZM128.252 11.2504V10.5894C128.252 9.75212 128.847 9.15724 129.684 9.15724H131.557V8.82674C131.557 8.38609 131.326 8.16576 130.896 8.16576H128.693V7.00903L131.392 7.00903C132.229 7.00903 132.824 7.60392 132.824 8.44117V12.5723H131.943L131.777 11.9664H131.722C131.645 12.1096 131.557 12.2308 131.436 12.33C131.227 12.5062 130.929 12.6825 130.456 12.6825H129.684C128.847 12.6825 128.252 12.0876 128.252 11.2504Z" fill="black"/>
<path d="M124.565 11.4156H125.281C125.843 11.4156 126.163 11.0961 126.163 10.5343V8.16576H124.565C124.125 8.16576 123.904 8.38609 123.904 8.82674V10.7546C123.904 11.1953 124.125 11.4156 124.565 11.4156ZM122.637 11.1402V8.44117C122.637 7.62595 123.254 7.00903 124.069 7.00903L127.43 7.00903V14.4451H126.163V12.0215H126.108C126.03 12.1207 125.931 12.2198 125.821 12.2969C125.634 12.4401 125.358 12.5723 125.006 12.5723H124.069C123.276 12.5723 122.637 11.9334 122.637 11.1402Z" fill="black"/>
<path d="M118.785 11.4156H119.501C120.063 11.4156 120.383 11.0961 120.383 10.5343V8.16576H118.785C118.345 8.16576 118.124 8.38609 118.124 8.82674V10.7546C118.124 11.1953 118.345 11.4156 118.785 11.4156ZM116.857 11.1402V8.44117C116.857 7.62595 117.474 7.00903 118.289 7.00903L121.649 7.00903V14.4451H120.383V12.0215H120.328C120.25 12.1207 120.151 12.2198 120.041 12.2969C119.854 12.4401 119.578 12.5723 119.226 12.5723H118.289C117.496 12.5723 116.857 11.9334 116.857 11.1402Z" fill="black"/>
<path d="M114.545 12.5729V5.02661H115.812V12.5729H114.545Z" fill="black"/>
<path d="M110.695 11.5258H111.246C111.808 11.5258 112.127 11.2063 112.127 10.6445V10.2589H110.695C110.288 10.2589 110.089 10.4462 110.089 10.8097V10.9199C110.089 11.3275 110.288 11.5258 110.695 11.5258ZM108.822 11.2504V10.5894C108.822 9.75212 109.417 9.15724 110.255 9.15724H112.127V8.82674C112.127 8.38609 111.896 8.16576 111.466 8.16576H109.263V7.00903L111.962 7.00903C112.799 7.00903 113.394 7.60392 113.394 8.44117V12.5723H112.513L112.348 11.9664H112.293C112.215 12.1096 112.127 12.2308 112.006 12.33C111.797 12.5062 111.499 12.6825 111.026 12.6825H110.255C109.417 12.6825 108.822 12.0876 108.822 11.2504Z" fill="black"/>
<path d="M102.595 12.5736V11.9126L104.468 8.71787L102.816 5.52311V4.86212H104.083L105.515 7.89164H105.57L107.002 4.86212H108.269V5.52311L106.616 8.66279L108.489 11.9126V12.5736H107.222L105.57 9.43394H105.515L103.862 12.5736H102.595Z" fill="black"/>
<g clip-path="url(#clip0_763_6270)">
<path d="M0.0992737 1.01025H5.29464L9.06707 17.0265L13.2035 1.01025H18.068L22.1382 17.2251L26.043 1.01025H31.1391L24.7855 24.5714H19.6232L15.5861 8.48894L11.6151 24.5714H6.35357L0.0992737 1.01025ZM46.6996 24.5714H41.9343C41.78 24.1302 41.6696 23.5787 41.6036 22.9168C40.1696 24.3508 38.3275 25.0678 36.0771 25.0678C34.18 25.0678 32.6909 24.6155 31.6099 23.711C30.5289 22.7845 29.9884 21.5159 29.9884 19.9055C29.9884 19.1775 30.0766 18.5377 30.2531 17.9862C30.4517 17.4347 30.7605 16.9714 31.1797 16.5964C31.6209 16.2213 32.029 15.9125 32.4041 15.6698C32.8012 15.4271 33.3417 15.2286 34.0256 15.0742C34.7095 14.9197 35.261 14.8094 35.6801 14.7432C36.0993 14.655 36.6839 14.5667 37.4339 14.4785C39.0886 14.2579 40.1918 14.0263 40.7432 13.7836C41.3168 13.5409 41.6036 13.0887 41.6036 12.4268C41.6036 10.9046 40.5779 10.1435 38.5261 10.1435C37.445 10.1435 36.6507 10.342 36.1436 10.7392C35.636 11.1142 35.3051 11.787 35.1507 12.7577H30.7495C31.0142 8.91912 33.6505 6.9998 38.6582 6.9998C43.6221 6.9998 46.1039 8.85294 46.1039 12.5592V19.9386C46.1039 22.1006 46.3025 23.6448 46.6996 24.5714ZM41.5704 16.2654C41.0189 16.5964 39.9157 16.8942 38.2614 17.1589C36.8714 17.3795 35.9668 17.6553 35.5478 17.9862C35.0624 18.3833 34.8197 18.9569 34.8197 19.7069C34.8197 20.4129 35.0404 20.9755 35.4816 21.3946C35.945 21.7917 36.5846 21.9903 37.4011 21.9903C38.6582 21.9903 39.6621 21.6594 40.4121 20.9975C41.1843 20.3136 41.5704 19.376 41.5704 18.1848V16.2654ZM64.3446 7.49619L58.0571 24.5052C57.7482 25.3656 57.5168 25.9613 57.3621 26.2922C57.23 26.6452 57.0093 27.1305 56.7004 27.7482C56.4136 28.3659 56.1379 28.7961 55.8732 29.0388C55.6304 29.2814 55.2886 29.5572 54.8475 29.866C54.4282 30.1749 53.9429 30.3845 53.3914 30.4948C52.8618 30.6051 52.2443 30.6602 51.5382 30.6602C50.9646 30.6602 49.9168 30.6492 48.3946 30.6272V26.7554H50.6779C51.45 26.7554 52.0346 26.5569 52.4318 26.1598C52.8507 25.7627 53.0604 25.2002 53.0604 24.4721C53.0604 24.2957 53.0164 24.075 52.9282 23.8103L46.74 7.49619H51.8029L55.7079 19.1113L59.48 7.49619H64.3446ZM78.0404 1.01025V24.5714H73.3414V1.01025H78.0404ZM85.5789 1.01025V24.5714H80.88V1.01025H85.5789Z" fill="#D42427"/>
</g>
<path d="M88.9156 4.59558C88.9156 4.98267 88.9839 5.3432 89.1205 5.67716C89.2647 6.00353 89.4583 6.29196 89.7011 6.54243C89.944 6.78531 90.2249 6.97886 90.5436 7.12307C90.87 7.25969 91.2192 7.328 91.5911 7.328C91.963 7.328 92.3083 7.25969 92.6271 7.12307C92.9535 6.97886 93.2381 6.78531 93.481 6.54243C93.7239 6.29196 93.9136 6.00353 94.0503 5.67716C94.1945 5.3432 94.2666 4.98267 94.2666 4.59558C94.2666 4.20848 94.1945 3.85175 94.0503 3.52538C93.9136 3.19141 93.7239 2.90299 93.481 2.66011C93.2381 2.40964 92.9535 2.21609 92.6271 2.07947C92.3083 1.93526 91.963 1.86315 91.5911 1.86315C91.2192 1.86315 90.87 1.93526 90.5436 2.07947C90.2249 2.21609 89.944 2.40964 89.7011 2.66011C89.4583 2.90299 89.2647 3.19141 89.1205 3.52538C88.9839 3.85175 88.9156 4.20848 88.9156 4.59558ZM95.2343 4.59558C95.2343 5.1117 95.1394 5.58988 94.9497 6.0301C94.7675 6.47032 94.5095 6.85742 94.1755 7.19138C93.8491 7.51775 93.462 7.77582 93.0142 7.96557C92.574 8.14773 92.0996 8.23881 91.5911 8.23881C91.0749 8.23881 90.5968 8.14773 90.1565 7.96557C89.7163 7.77582 89.3292 7.51775 88.9953 7.19138C88.6689 6.85742 88.4108 6.47032 88.2211 6.0301C88.0389 5.58988 87.9478 5.1117 87.9478 4.59558C87.9478 4.08704 88.0389 3.61266 88.2211 3.17244C88.4108 2.72462 88.6689 2.33753 88.9953 2.01116C89.3292 1.67719 89.7163 1.41913 90.1565 1.23697C90.5968 1.04722 91.0749 0.952342 91.5911 0.952342C92.0996 0.952342 92.574 1.04722 93.0142 1.23697C93.462 1.41913 93.8491 1.67719 94.1755 2.01116C94.5095 2.33753 94.7675 2.72462 94.9497 3.17244C95.1394 3.61266 95.2343 4.08704 95.2343 4.59558ZM93.1281 3.9694C93.1281 4.16674 93.0863 4.32992 93.0028 4.45895C92.9193 4.58799 92.8283 4.69425 92.7296 4.77774C92.6081 4.86882 92.4753 4.94092 92.3311 4.99406L93.4127 6.47412H92.3311L91.4772 5.22176H91.1926V6.47412L90.2249 6.47412V2.71703L91.7618 2.71703C91.9592 2.71703 92.1414 2.75119 92.3083 2.8195C92.4753 2.88781 92.6195 2.97889 92.741 3.09274C92.8624 3.20659 92.9573 3.33942 93.0256 3.49122C93.0939 3.64302 93.1281 3.80241 93.1281 3.9694ZM91.7049 4.36787C91.8795 4.36787 92.0085 4.32992 92.092 4.25402C92.1755 4.17812 92.2173 4.08325 92.2173 3.9694C92.2173 3.85554 92.1755 3.76067 92.092 3.68477C92.0085 3.60887 91.8795 3.57092 91.7049 3.57092L91.1926 3.57092V4.36787L91.7049 4.36787Z" fill="#D42427"/>
<defs>
<clipPath id="clip0_763_6270">
<rect width="85.7143" height="30" fill="white" transform="translate(0 1)"/>
</clipPath>
</defs>
</svg>
