<svg width="127" height="32" viewBox="0 0 127 32" fill="none" xmlns="http://www.w3.org/2000/svg">
<path d="M90.6902 5.84633V1.88312H91.3026V24.0771H90.6902V5.84633Z" fill="#E10100"/>
<path d="M117.531 22.7958H118.212C118.747 22.7958 119.051 22.4942 119.051 21.9637V19.7272H117.531C117.112 19.7272 116.903 19.9353 116.903 20.3514V22.1717C116.903 22.5878 117.112 22.7958 117.531 22.7958ZM115.698 22.5358V19.9873C115.698 19.2175 116.284 18.635 117.06 18.635H120.255V25.6564H119.051V23.368H118.998C118.925 23.4616 118.831 23.5552 118.726 23.628C118.548 23.7633 118.285 23.8881 117.95 23.8881H117.06C116.305 23.8881 115.698 23.2847 115.698 22.5358Z" fill="#E10100"/>
<path d="M113.55 23.8888V18.6357H114.754V23.8888H113.55ZM113.55 17.9076V16.5553H114.754V17.9076H113.55Z" fill="#E10100"/>
<path d="M108.103 23.8883V16.7628H109.309V19.1553H109.361C109.424 19.0409 109.507 18.9369 109.623 18.8433C109.801 18.6872 110.095 18.5312 110.514 18.5312H111.142C111.939 18.5312 112.505 19.0929 112.505 19.8835V23.8883H111.3V20.2476C111.3 19.8314 111.09 19.6234 110.671 19.6234H110.199C109.602 19.6234 109.309 19.9147 109.309 20.5076V23.8883H108.103Z" fill="#E10100"/>
<path d="M103.492 22.5358V19.9873C103.492 19.1967 104.058 18.635 104.854 18.635H107.369V19.3631L107.002 19.7272H105.326C104.906 19.7272 104.697 19.9353 104.697 20.3514V22.1717C104.697 22.5878 104.906 22.7958 105.326 22.7958H107.369V23.8881H104.854C104.058 23.8881 103.492 23.3264 103.492 22.5358Z" fill="#E10100"/>
<path d="M98.0459 22.6405V19.8839C98.0459 19.0933 98.6119 18.5316 99.4081 18.5316H101.294C102.091 18.5316 102.656 19.0933 102.656 19.8839V22.6405C102.656 23.4206 102.069 23.9927 101.294 23.9927H99.4081C98.6119 23.9927 98.0459 23.431 98.0459 22.6405ZM99.8793 22.9005H100.822C101.242 22.9005 101.451 22.6924 101.451 22.2764V20.248C101.451 19.8318 101.242 19.6238 100.822 19.6238H99.8793C99.4603 19.6238 99.2508 19.8318 99.2508 20.248V22.2764C99.2508 22.6924 99.4603 22.9005 99.8793 22.9005Z" fill="#E10100"/>
<path d="M123.864 11.6511H124.388C124.922 11.6511 125.226 11.3495 125.226 10.8189V10.4549H123.864C123.476 10.4549 123.287 10.6317 123.287 10.975V11.079C123.287 11.4639 123.476 11.6511 123.864 11.6511ZM122.082 11.3911V10.767C122.082 9.97637 122.648 9.41465 123.445 9.41465H125.226V9.10258C125.226 8.68652 125.006 8.47845 124.597 8.47845H122.501V7.38623H125.069C125.865 7.38623 126.431 7.94796 126.431 8.73855V12.6394H125.593L125.435 12.0672H125.383C125.31 12.2024 125.226 12.3169 125.11 12.4105C124.911 12.5769 124.629 12.7434 124.178 12.7434H123.445C122.648 12.7434 122.082 12.1816 122.082 11.3911Z" fill="#E10100"/>
<path d="M118.575 11.5471H119.257C119.791 11.5471 120.095 11.2454 120.095 10.7149V8.47845H118.575C118.156 8.47845 117.947 8.68652 117.947 9.10258V10.923C117.947 11.3391 118.156 11.5471 118.575 11.5471ZM116.742 11.287V8.73855C116.742 7.96876 117.329 7.38623 118.104 7.38623H121.3V14.4077H120.095V12.1192H120.043C119.969 12.2129 119.875 12.3065 119.77 12.3793C119.592 12.5145 119.33 12.6394 118.994 12.6394H118.104C117.35 12.6394 116.742 12.036 116.742 11.287Z" fill="#E10100"/>
<path d="M113.078 11.5471H113.758C114.293 11.5471 114.597 11.2454 114.597 10.7149V8.47845H113.078C112.659 8.47845 112.449 8.68652 112.449 9.10258V10.923C112.449 11.3391 112.659 11.5471 113.078 11.5471ZM111.244 11.287V8.73855C111.244 7.96876 111.831 7.38623 112.606 7.38623H115.802V14.4077H114.597V12.1192H114.544C114.471 12.2129 114.377 12.3065 114.272 12.3793C114.094 12.5145 113.832 12.6394 113.497 12.6394H112.606C111.852 12.6394 111.244 12.036 111.244 11.287Z" fill="#E10100"/>
<path d="M109.045 12.6386V5.51312H110.251V12.6386H109.045Z" fill="#E10100"/>
<path d="M105.384 11.6511H105.908C106.442 11.6511 106.746 11.3495 106.746 10.8189V10.4549H105.384C104.996 10.4549 104.807 10.6317 104.807 10.975V11.079C104.807 11.4639 104.996 11.6511 105.384 11.6511ZM103.602 11.3911V10.767C103.602 9.97637 104.168 9.41465 104.964 9.41465H106.746V9.10258C106.746 8.68652 106.526 8.47845 106.117 8.47845H104.021V7.38623H106.588C107.385 7.38623 107.951 7.94796 107.951 8.73855V12.6394H107.113L106.955 12.0672H106.903C106.83 12.2024 106.746 12.3169 106.63 12.4105C106.431 12.5769 106.149 12.7434 105.698 12.7434H104.964C104.168 12.7434 103.602 12.1816 103.602 11.3911Z" fill="#E10100"/>
<path d="M97.6798 12.64V12.0158L99.461 8.99919L97.8893 5.98259V5.35846H99.0942L100.456 8.21903H100.509L101.871 5.35846H103.076V5.98259L101.504 8.94722L103.285 12.0158V12.64H102.08L100.509 9.67535H100.456L98.8847 12.64H97.6798Z" fill="#E10100"/>
<path d="M0.192017 1.79572H5.13349L8.72156 16.919L12.6559 1.79572H17.2826L21.154 17.1064L24.8679 1.79572H29.715L23.6719 24.0431H18.7619L14.922 8.85741L11.1451 24.0431H6.14067L0.192017 1.79572ZM44.5151 24.0431H39.9828C39.8358 23.6265 39.731 23.1057 39.668 22.4808C38.3041 23.8348 36.552 24.5118 34.4118 24.5118C32.6072 24.5118 31.1909 24.0848 30.1628 23.2307C29.1346 22.3558 28.6205 21.158 28.6205 19.6374C28.6205 18.95 28.7045 18.3459 28.8723 17.8251C29.0612 17.3043 29.3549 16.8669 29.7536 16.5128C30.1732 16.1586 30.5614 15.867 30.9181 15.6378C31.2958 15.4087 31.8099 15.2213 32.4604 15.0754C33.1108 14.9296 33.6354 14.8255 34.0341 14.7629C34.4328 14.6796 34.9888 14.5963 35.7022 14.513C37.2759 14.3047 38.3251 14.086 38.8497 13.8568C39.3952 13.6277 39.668 13.2006 39.668 12.5757C39.668 11.1384 38.6923 10.4197 36.7409 10.4197C35.7127 10.4197 34.9574 10.6072 34.4747 10.9821C33.9921 11.3363 33.6774 11.9716 33.5305 12.8882H29.3444C29.5962 9.26362 32.1037 7.45133 36.8668 7.45133C41.5879 7.45133 43.9485 9.20109 43.9485 12.7007V19.6686C43.9485 21.7101 44.1373 23.1683 44.5151 24.0431ZM39.6365 16.2003C39.1119 16.5128 38.0628 16.794 36.4891 17.044C35.1671 17.2522 34.3069 17.5126 33.9082 17.8251C33.4466 18.2001 33.2158 18.7416 33.2158 19.4499C33.2158 20.1165 33.4256 20.6477 33.8452 21.0435C34.2859 21.4184 34.8944 21.6059 35.6708 21.6059C36.8668 21.6059 37.8215 21.2934 38.5349 20.6686C39.2693 20.0228 39.6365 19.1375 39.6365 18.0125V16.2003ZM61.2978 7.92L55.3177 23.9806C55.0239 24.793 54.8036 25.3555 54.6567 25.668C54.5308 26.0012 54.3209 26.4595 54.0272 27.0428C53.7544 27.6261 53.4922 28.0323 53.2403 28.2614C53.0096 28.4905 52.6843 28.7509 52.2646 29.0426C51.866 29.3342 51.4043 29.5321 50.8798 29.6362C50.3762 29.7404 49.7886 29.7925 49.1172 29.7925C48.5716 29.7925 47.575 29.782 46.1271 29.7612V26.1054H48.2989C49.0333 26.1054 49.5893 25.9179 49.967 25.543C50.3657 25.168 50.565 24.6368 50.565 23.9494C50.565 23.7827 50.5231 23.5744 50.4391 23.3245L44.5534 7.92H49.369L53.083 18.8875L56.6711 7.92H61.2978ZM74.324 1.79572V24.0431H69.8552V1.79572H74.324ZM81.4947 1.79572V24.0431H77.0252V1.79572H81.4947Z" fill="#E10100"/>
<path d="M83.7974 3.23373C83.7974 3.36427 83.8206 3.48585 83.867 3.59847C83.916 3.70854 83.9818 3.8058 84.0643 3.89027C84.1468 3.97217 84.2422 4.03744 84.3505 4.08607C84.4614 4.13215 84.58 4.15518 84.7064 4.15518C84.8327 4.15518 84.9501 4.13215 85.0584 4.08607C85.1693 4.03744 85.266 3.97217 85.3485 3.89027C85.431 3.8058 85.4955 3.70854 85.5419 3.59847C85.5909 3.48585 85.6154 3.36427 85.6154 3.23373C85.6154 3.10319 85.5909 2.98289 85.5419 2.87283C85.4955 2.76021 85.431 2.66294 85.3485 2.58104C85.266 2.49657 85.1693 2.4313 85.0584 2.38522C84.9501 2.3366 84.8327 2.31228 84.7064 2.31228C84.58 2.31228 84.4614 2.3366 84.3505 2.38522C84.2422 2.4313 84.1468 2.49657 84.0643 2.58104C83.9818 2.66294 83.916 2.76021 83.867 2.87283C83.8206 2.98289 83.7974 3.10319 83.7974 3.23373ZM85.9442 3.23373C85.9442 3.40778 85.9119 3.56904 85.8475 3.71749C85.7856 3.86595 85.6979 3.99649 85.5844 4.10911C85.4736 4.21918 85.342 4.3062 85.1899 4.37019C85.0403 4.43162 84.8792 4.46234 84.7064 4.46234C84.531 4.46234 84.3686 4.43162 84.219 4.37019C84.0695 4.3062 83.9379 4.21918 83.8245 4.10911C83.7136 3.99649 83.6259 3.86595 83.5615 3.71749C83.4996 3.56904 83.4686 3.40778 83.4686 3.23373C83.4686 3.06224 83.4996 2.90227 83.5615 2.75381C83.6259 2.60279 83.7136 2.47225 83.8245 2.36219C83.9379 2.24957 84.0695 2.16254 84.219 2.10111C84.3686 2.03712 84.531 2.00513 84.7064 2.00513C84.8792 2.00513 85.0403 2.03712 85.1899 2.10111C85.342 2.16254 85.4736 2.24957 85.5844 2.36219C85.6979 2.47225 85.7856 2.60279 85.8475 2.75381C85.9119 2.90227 85.9442 3.06224 85.9442 3.23373ZM85.2286 3.02257C85.2286 3.08911 85.2144 3.14415 85.186 3.18765C85.1577 3.23117 85.1267 3.26701 85.0932 3.29516C85.0519 3.32588 85.0068 3.35019 84.9578 3.36811L85.3253 3.86723H84.9578L84.6677 3.4449H84.571V3.86723H84.2422V2.60023H84.7644C84.8315 2.60023 84.8933 2.61175 84.9501 2.63478C85.0068 2.65782 85.0558 2.68854 85.0971 2.72693C85.1383 2.76533 85.1706 2.81012 85.1938 2.86131C85.217 2.9125 85.2286 2.96625 85.2286 3.02257ZM84.7451 3.15694C84.8044 3.15694 84.8482 3.14415 84.8766 3.11855C84.9049 3.09295 84.9191 3.06096 84.9191 3.02257C84.9191 2.98417 84.9049 2.95217 84.8766 2.92658C84.8482 2.90099 84.8044 2.88819 84.7451 2.88819H84.571V3.15694H84.7451Z" fill="#E10100"/>
</svg>
