<svg width="224" height="147" viewBox="0 0 224 147" fill="none" xmlns="http://www.w3.org/2000/svg">
<path d="M-248.002 50.9555C-240.681 23.635 -237.021 9.97479 -226.259 3.76158C-215.498 -2.45162 -201.837 1.20863 -174.517 8.52914L173.216 101.704C200.537 109.025 214.197 112.685 220.41 123.446C226.624 134.208 222.963 147.868 215.643 175.189L143.174 445.648C135.853 472.968 132.193 486.629 121.431 492.842C110.67 499.055 97.0093 495.395 69.6888 488.074L-278.044 394.899C-305.365 387.579 -319.025 383.919 -325.238 373.157C-331.452 362.396 -327.791 348.735 -320.471 321.415L-248.002 50.9555Z" fill="#7E1E20"/>
</svg>
