<svg width="413" height="167" viewBox="0 0 413 167" fill="none" xmlns="http://www.w3.org/2000/svg">
<path d="M558.339 310.495C568.013 337.074 572.85 350.363 567.598 361.625C562.347 372.887 549.057 377.724 522.479 387.398L184.19 510.525C157.611 520.199 144.322 525.036 133.06 519.784C121.797 514.533 116.961 501.244 107.287 474.665L11.5212 211.551C1.84737 184.973 -2.98953 171.683 2.26212 160.421C7.51372 149.159 20.803 144.322 47.3815 134.648L385.671 11.5211C412.249 1.84732 425.539 -2.98957 436.801 2.26206C448.063 7.51367 452.9 20.8029 462.574 47.3815L558.339 310.495Z" fill="#7E1E20"/>
</svg>
