<svg width="94" height="214" viewBox="0 0 94 214" fill="none" xmlns="http://www.w3.org/2000/svg">
<path d="M80.9984 -231.044C88.319 -258.365 91.9792 -272.025 102.741 -278.238C113.502 -284.452 127.163 -280.791 154.483 -273.471L502.216 -180.296C529.537 -172.975 543.197 -169.315 549.41 -158.554C555.624 -147.792 551.963 -134.132 544.643 -106.811L472.174 163.648C464.853 190.968 461.193 204.629 450.431 210.842C439.67 217.055 426.009 213.395 398.689 206.074L50.9555 112.899C23.635 105.579 9.97476 101.919 3.76156 91.1571C-2.45165 80.3956 1.20861 66.7353 8.52911 39.4148L80.9984 -231.044Z" fill="#7E1E20"/>
</svg>
