<svg width="549" height="59" viewBox="0 0 549 59" fill="none" xmlns="http://www.w3.org/2000/svg">
<path d="M537.339 -152.505C547.013 -125.926 551.85 -112.637 546.598 -101.375C541.347 -90.1125 528.057 -85.2756 501.479 -75.6018L163.19 47.5254C136.611 57.1992 123.322 62.0361 112.06 56.7845C100.798 51.5329 95.9607 38.2436 86.2869 11.6651L-9.47877 -251.449C-19.1526 -278.027 -23.9895 -291.317 -18.7378 -302.579C-13.4862 -313.841 -0.196947 -318.678 26.3816 -328.352L364.671 -451.479C391.249 -461.153 404.539 -465.99 415.801 -460.738C427.063 -455.486 431.9 -442.197 441.574 -415.619L537.339 -152.505Z" fill="#7E1E20"/>
</svg>
